<?xml version="1.0" encoding="UTF-8"?>
<svg version="1.1" xmlns="http://www.w3.org/2000/svg" width="448" height="299">
<path d="M0 0 C0.97710937 -0.02449219 1.95421875 -0.04898438 2.9609375 -0.07421875 C12.46653005 -0.11214 20.51106837 2.66940975 27.9296875 8.69140625 C32.46296362 13.19334636 33.85031762 17.74795229 34.0625 24.0625 C33.90607553 28.23961266 33.4486457 31.11694727 30.625 34.375 C27.71499203 35.83000399 25.1160667 35.58397384 21.875 35.625 C20.66328125 35.65078125 19.4515625 35.6765625 18.203125 35.703125 C13.47229834 35.26929373 10.28480271 33.94479172 6.82421875 30.671875 C5.14042439 27.44688775 4.80484278 24.19058405 4.4375 20.625 C4.35564453 19.92761719 4.27378906 19.23023437 4.18945312 18.51171875 C3.99022867 16.80073224 3.80610071 15.08799963 3.625 13.375 C0.985 13.375 -1.655 13.375 -4.375 13.375 C-5.52154482 15.66808963 -5.57229117 17.17409656 -5.69140625 19.7265625 C-5.75424805 21.00273438 -5.75424805 21.00273438 -5.81835938 22.3046875 C-5.85767578 23.19414063 -5.89699219 24.08359375 -5.9375 25 C-6.00227539 26.34578125 -6.00227539 26.34578125 -6.06835938 27.71875 C-6.17456861 29.93734283 -6.27661194 32.1560488 -6.375 34.375 C-5.83552734 34.54805664 -5.29605469 34.72111328 -4.74023438 34.89941406 C26.03188537 44.94070335 26.03188537 44.94070335 33.0625 55.6875 C36.67017634 63.36113117 36.98728285 71.90990767 36.9375 80.25 C36.93331055 81.21164063 36.92912109 82.17328125 36.92480469 83.1640625 C36.77461625 92.6227388 36.00167118 101.90518519 29.625 109.375 C23.47547857 115.16092505 19.5335637 115.7291773 11.17578125 115.65234375 C3.27705423 115.03539147 -1.76321228 110.63605099 -7.375 105.375 C-7.6225 106.1175 -7.87 106.86 -8.125 107.625 C-9.48791363 110.62340999 -10.87595178 112.25459545 -13.375 114.375 C-17.18092493 115.64364164 -20.78370641 115.59820072 -24.75 115.625 C-25.50539062 115.645625 -26.26078125 115.66625 -27.0390625 115.6875 C-31.60997364 115.71946441 -34.7240293 115.4409696 -38.375 112.375 C-39.375 108.9375 -39.375 108.9375 -39.375 105.375 C-38.64489464 104.50358368 -38.64489464 104.50358368 -37.90003967 103.61456299 C-35.77785181 100.49807135 -35.95032114 97.62014823 -35.97436523 93.97949219 C-35.96738617 93.24073349 -35.9604071 92.50197479 -35.95321655 91.74082947 C-35.93323985 89.3010618 -35.93373995 86.86171721 -35.93359375 84.421875 C-35.92181754 82.7203864 -35.90845272 81.01890811 -35.89356995 79.31744385 C-35.85736698 74.8357625 -35.83718325 70.35417248 -35.82202148 65.87237549 C-35.79721138 58.71354674 -35.75729142 51.55492021 -35.70012093 44.39627838 C-35.68388241 41.90368349 -35.68002174 39.41128124 -35.67710876 36.91864014 C-35.66732285 35.3751188 -35.65705802 33.83160039 -35.64624023 32.28808594 C-35.64879318 31.60312546 -35.65134613 30.91816498 -35.65397644 30.21244812 C-35.56127436 21.34538495 -33.18967892 14.11591096 -27.375 7.375 C-19.38685683 0.57517565 -10.0700605 0.01318071 0 0 Z M-6.375 46.375 C-6.4511466 52.69206001 -6.50364032 59.00900139 -6.53979492 65.32641602 C-6.55486915 67.47489851 -6.57533189 69.6233503 -6.60131836 71.77172852 C-6.63776114 74.86221908 -6.65474019 77.95230231 -6.66796875 81.04296875 C-6.68345261 82.00148239 -6.69893646 82.95999603 -6.71488953 83.94755554 C-6.75498506 90.68636075 -6.75498506 90.68636075 -3.375 96.375 C-0.24864791 96.79246608 -0.24864791 96.79246608 2.625 96.375 C6.31315932 89.73825948 6.03865705 83.46134369 5.9375 76 C5.94072266 74.81921875 5.94394531 73.6384375 5.94726562 72.421875 C6.16189142 61.05181097 6.16189142 61.05181097 1.75 50.96484375 C1.04875 50.41957031 0.3475 49.87429687 -0.375 49.3125 C-1.07625 48.74402344 -1.7775 48.17554688 -2.5 47.58984375 C-4.28238724 46.19374712 -4.28238724 46.19374712 -6.375 46.375 Z " fill="#FCFDFE" transform="translate(275.375,48.625)"/>
<path d="M0 0 C0.92490234 -0.01160156 1.84980469 -0.02320313 2.80273438 -0.03515625 C12.94700402 0.0074966 21.59002266 2.26576809 29.0625 9.375 C34.01411178 15.62966751 35.36151191 21.50063463 35.33374023 29.35229492 C35.33896698 30.12863785 35.34419373 30.90498077 35.34957886 31.70484924 C35.35977718 33.38099853 35.36559195 35.05717911 35.36746025 36.73335838 C35.37113523 39.38540218 35.38788974 42.03707585 35.40821838 44.68904114 C35.46354296 52.22548562 35.49439242 59.76198253 35.51879883 67.29858398 C35.53464939 71.91567082 35.56483249 76.53249029 35.60356331 81.14943886 C35.61522583 82.9081063 35.62114377 84.66682146 35.62124443 86.42552757 C35.62143592 88.87926692 35.63965759 91.33226427 35.66186523 93.78588867 C35.65728806 94.51373566 35.65271088 95.24158264 35.647995 95.9914856 C35.64549018 99.8851043 35.64549018 99.8851043 37.56410217 103.13056946 C38.05857346 103.54123154 38.55304474 103.95189362 39.0625 104.375 C39.71294248 110.44579646 39.71294248 110.44579646 37.75 113.25 C33.74103366 115.92264423 29.38226598 115.62846517 24.75 115.6875 C23.62948242 115.73100586 23.62948242 115.73100586 22.48632812 115.77539062 C17.1894604 115.83584653 14.27415848 114.85419614 10.0625 111.375 C7.6875 108.625 7.6875 108.625 6.0625 106.375 C5.45921875 106.85710937 4.8559375 107.33921875 4.234375 107.8359375 C3.43515625 108.46757812 2.6359375 109.09921875 1.8125 109.75 C1.02359375 110.37648438 0.2346875 111.00296875 -0.578125 111.6484375 C-5.14869106 114.99312326 -8.07532697 115.66899299 -13.8125 115.6875 C-15.00617188 115.70425781 -16.19984375 115.72101563 -17.4296875 115.73828125 C-22.68305995 115.19422375 -26.66711159 113.25998825 -30.125 109.25 C-38.85187355 98.42136633 -37.86152048 81.95121221 -36.59375 68.8125 C-35.41146679 60.93061193 -33.31112456 54.83732123 -27.47265625 49.234375 C-21.57918107 44.91188781 -14.62084057 42.24766393 -7.9375 39.375 C-7.30392578 39.09817383 -6.67035156 38.82134766 -6.01757812 38.53613281 C3.51595828 34.375 3.51595828 34.375 6.0625 34.375 C5.92429731 31.0621348 5.77566222 27.74982011 5.625 24.4375 C5.58568359 23.49197266 5.54636719 22.54644531 5.50585938 21.57226562 C5.46396484 20.67314453 5.42207031 19.77402344 5.37890625 18.84765625 C5.32391968 17.59867554 5.32391968 17.59867554 5.26782227 16.32446289 C5.26882897 14.37161142 5.26882897 14.37161142 4.0625 13.375 C1.10432893 13.12494614 1.10432893 13.12494614 -1.9375 13.375 C-5.2822036 16.7197036 -4.73163974 21.42591349 -5.1796875 25.9921875 C-6.0373337 29.82064939 -6.83299462 31.04932524 -9.9375 33.375 C-13.93356233 35.49811941 -17.51163421 35.70199609 -22 35.75 C-23.20785156 35.77835938 -24.41570312 35.80671875 -25.66015625 35.8359375 C-28.9375 35.375 -28.9375 35.375 -31.30859375 33.5390625 C-34.56866731 29.20793359 -34.61784394 24.57763017 -33.9375 19.375 C-31.84740793 12.58474966 -28.58654699 8.39272696 -22.609375 4.62890625 C-15.00691475 1.06108499 -8.38643127 -0.10475764 0 0 Z M-2.55859375 51.70703125 C-9.06817336 59.58122529 -6.62564681 78.75548133 -5.74560547 88.49975586 C-5.41058618 91.1206896 -5.13558892 93.06796218 -3.6875 95.3125 C-1.2268839 96.80644549 0.23804877 96.86927897 3.0625 96.375 C5.75416486 93.51856804 6.43508938 91.58251117 6.40307617 87.69824219 C6.40273628 86.31726349 6.40273628 86.31726349 6.40238953 84.90838623 C6.38690567 83.92283752 6.37142181 82.93728882 6.35546875 81.921875 C6.35122391 80.90651672 6.34697906 79.89115845 6.34260559 78.84503174 C6.32582424 75.60475046 6.28817241 72.36509303 6.25 69.125 C6.23495249 66.92709232 6.2212642 64.72917488 6.20898438 62.53125 C6.17592255 57.14562078 6.12572836 51.76035497 6.0625 46.375 C3.10378352 46.375 -0.33485695 49.87981619 -2.55859375 51.70703125 Z " fill="#FCFDFE" transform="translate(169.9375,48.625)"/>
<path d="M0 0 C22.0611816 19.01732285 36.54192458 42.50051287 40.22265625 71.81640625 C40.50232604 76.09201911 40.55719373 80.34501197 40.53515625 84.62890625 C40.52778442 86.33784058 40.52778442 86.33784058 40.52026367 88.08129883 C40.40080904 96.68877105 39.6150626 104.51051162 37.22265625 112.81640625 C36.88234375 114.03972656 36.54203125 115.26304687 36.19140625 116.5234375 C28.84077341 140.63649322 12.78138108 162.50497884 -8.77734375 175.81640625 C-9.504375 176.31140625 -10.23140625 176.80640625 -10.98046875 177.31640625 C-22.83447792 185.05779999 -36.88515699 189.56993362 -50.77734375 191.81640625 C-51.53660156 191.94660156 -52.29585938 192.07679688 -53.078125 192.2109375 C-80.56714408 196.09356731 -109.13838556 188.78307679 -131.64453125 172.77734375 C-134.09480615 170.86139671 -136.44126312 168.86944639 -138.77734375 166.81640625 C-139.59460938 166.14222656 -140.411875 165.46804687 -141.25390625 164.7734375 C-154.48857671 153.52601632 -164.23011073 138.60661221 -170.08984375 122.31640625 C-170.32026367 121.67735352 -170.55068359 121.03830078 -170.78808594 120.37988281 C-174.71171727 108.75878972 -176.31638302 97.30585476 -176.21484375 85.06640625 C-176.20582031 83.75309326 -176.19679688 82.43978027 -176.1875 81.08666992 C-175.79877898 59.18467023 -169.28623073 38.31985659 -155.77734375 20.81640625 C-155.37676758 20.29385254 -154.97619141 19.77129883 -154.56347656 19.23291016 C-136.18201813 -4.44954183 -110.44241459 -18.7400088 -80.76171875 -22.7734375 C-52.44483501 -26.01330028 -22.09272658 -18.31195178 0 0 Z M-142.890625 15.65625 C-162.24543882 37.8161093 -171.67854438 64.36348295 -169.77734375 93.81640625 C-167.2775665 120.51615478 -153.77971408 145.68765372 -133.28125 162.9140625 C-110.57351153 180.87690039 -84.48564584 187.74443508 -55.77734375 185.81640625 C-29.25185378 182.59986012 -4.43903714 168.76797557 12.16015625 147.87890625 C22.86179199 133.78530373 30.86130083 117.51123841 33.22265625 99.81640625 C33.33222656 99.00042969 33.44179688 98.18445313 33.5546875 97.34375 C36.79807233 69.36415021 28.26195842 42.09441207 10.90527344 20.15087891 C-5.44636959 0.30918587 -30.01668491 -13.6352275 -55.77734375 -16.18359375 C-88.76112993 -17.75033939 -119.70186531 -8.79646724 -142.890625 15.65625 Z " fill="#F7FAFC" transform="translate(290.77734375,23.18359375)"/>
<path d="M0 0 C5.28 0 10.56 0 16 0 C16 34.98 16 69.96 16 106 C10.72 106 5.44 106 0 106 C0 71.02 0 36.04 0 0 Z " fill="#FCFDFE" transform="translate(215,56)"/>
<path d="M0 0 C4.29 0 8.58 0 13 0 C16.66666667 7.33333333 20.33333333 14.66666667 24 22 C24.33 14.74 24.66 7.48 25 0 C28.63 0 32.26 0 36 0 C36 14.85 36 29.7 36 45 C31.71 45 27.42 45 23 45 C21.74738197 42.52212696 20.49787439 40.04276098 19.25 37.5625 C18.90195313 36.87478516 18.55390625 36.18707031 18.1953125 35.47851562 C15.62961791 30.37088287 13.32754596 25.23697841 11 20 C11 28.25 11 36.5 11 45 C7.37 45 3.74 45 0 45 C0 30.15 0 15.3 0 0 Z " fill="#FBFCFE" transform="translate(139,237)"/>
<path d="M0 0 C0.94681641 -0.020625 1.89363281 -0.04125 2.86914062 -0.0625 C9.19019649 -0.09778852 13.59950301 0.59096801 18.625 4.75 C21.0915777 7.8656771 21.13451752 11.336657 21.11328125 15.1875 C20.63637878 18.45768839 18.74922588 20.64752459 16.8125 23.25 C16.8125 26.41773786 17.66371566 28.16828127 18.9453125 31 C20.71947139 35.60322307 21.68169698 40.45754909 22.8125 45.25 C18.5225 45.25 14.2325 45.25 9.8125 45.25 C9.49796875 44.17878906 9.1834375 43.10757813 8.859375 42.00390625 C8.42796087 40.60649961 7.995621 39.20937854 7.5625 37.8125 C7.35753906 37.10544922 7.15257812 36.39839844 6.94140625 35.66992188 C6.25512829 33.36896243 6.25512829 33.36896243 4.8125 30.25 C3.4925 29.92 2.1725 29.59 0.8125 29.25 C0.8125 34.53 0.8125 39.81 0.8125 45.25 C-3.1475 45.25 -7.1075 45.25 -11.1875 45.25 C-11.21214455 39.00203746 -11.23033343 32.75410297 -11.24243164 26.50610352 C-11.24747298 24.37881986 -11.25430591 22.25153969 -11.26293945 20.12426758 C-11.27501379 17.07372174 -11.28073014 14.02322155 -11.28515625 10.97265625 C-11.29031754 10.01537125 -11.29547882 9.05808624 -11.30079651 8.0717926 C-11.30087204 7.19095505 -11.30094757 6.31011749 -11.30102539 5.40258789 C-11.303246 4.62315323 -11.30546661 3.84371857 -11.30775452 3.04066467 C-10.98427185 -1.77619381 -3.60726034 0.01925156 0 0 Z M0.8125 9.25 C0.8125 12.55 0.8125 15.85 0.8125 19.25 C4.2775 18.755 4.2775 18.755 7.8125 18.25 C8.9633314 14.17920792 8.9633314 14.17920792 7.6875 10.375 C5.46235706 8.82125354 5.46235706 8.82125354 0.8125 9.25 Z " fill="#FCFDFE" transform="translate(358.1875,236.75)"/>
<path d="M0 0 C5.28 0 10.56 0 16 0 C17.71059175 6.24752692 19.41954494 12.49549877 21.12695312 18.74389648 C21.70852898 20.87129967 22.29055955 22.99857861 22.87304688 25.12573242 C23.70821621 28.17594696 24.5417714 31.22659857 25.375 34.27734375 C25.63748535 35.23462875 25.8999707 36.19191376 26.17041016 37.1782074 C26.41065918 38.05904495 26.6509082 38.93988251 26.8984375 39.84741211 C27.21820557 41.0165641 27.21820557 41.0165641 27.54443359 42.20933533 C28 44 28 44 28 45 C23.71 45 19.42 45 15 45 C13 40 13 40 13 36 C8.05 36.495 8.05 36.495 3 37 C2.34 39.64 1.68 42.28 1 45 C-3.29 45 -7.58 45 -12 45 C-10.61527595 39.5549446 -9.22765825 34.1106378 -7.83740234 28.66699219 C-7.3652597 26.81660726 -6.89389607 24.96602337 -6.42333984 23.11523438 C-5.74523375 20.44868608 -5.06429132 17.78287557 -4.3828125 15.1171875 C-4.17439728 14.29507782 -3.96598206 13.47296814 -3.75125122 12.62594604 C-3.55119476 11.8455899 -3.35113831 11.06523376 -3.14501953 10.26123047 C-2.97181183 9.58172333 -2.79860413 8.90221619 -2.62014771 8.20211792 C-1.84213455 5.43942656 -0.90762151 2.72286453 0 0 Z M7 11 C6.66048381 12.56116819 6.32867456 14.12401338 6 15.6875 C5.814375 16.55761719 5.62875 17.42773438 5.4375 18.32421875 C5.01027953 20.93712964 4.92383799 23.35813038 5 26 C6.98 26 8.96 26 11 26 C10.01 21.05 9.02 16.1 8 11 C7.67 11 7.34 11 7 11 Z " fill="#FCFDFE" transform="translate(315,237)"/>
<path d="M0 0 C5.28 0 10.56 0 16 0 C17.71059175 6.24752692 19.41954494 12.49549877 21.12695312 18.74389648 C21.70852898 20.87129967 22.29055955 22.99857861 22.87304688 25.12573242 C23.70821621 28.17594696 24.5417714 31.22659857 25.375 34.27734375 C25.63748535 35.23462875 25.8999707 36.19191376 26.17041016 37.1782074 C26.41065918 38.05904495 26.6509082 38.93988251 26.8984375 39.84741211 C27.21820557 41.0165641 27.21820557 41.0165641 27.54443359 42.20933533 C28 44 28 44 28 45 C23.71 45 19.42 45 15 45 C13 40 13 40 13 36 C8.05 36.495 8.05 36.495 3 37 C2.34 39.64 1.68 42.28 1 45 C-3.29 45 -7.58 45 -12 45 C-10.61527595 39.5549446 -9.22765825 34.1106378 -7.83740234 28.66699219 C-7.3652597 26.81660726 -6.89389607 24.96602337 -6.42333984 23.11523438 C-5.74523375 20.44868608 -5.06429132 17.78287557 -4.3828125 15.1171875 C-4.17439728 14.29507782 -3.96598206 13.47296814 -3.75125122 12.62594604 C-3.55119476 11.8455899 -3.35113831 11.06523376 -3.14501953 10.26123047 C-2.97181183 9.58172333 -2.79860413 8.90221619 -2.62014771 8.20211792 C-1.84213455 5.43942656 -0.90762151 2.72286453 0 0 Z M7 11 C6.66048381 12.56116819 6.32867456 14.12401338 6 15.6875 C5.814375 16.55761719 5.62875 17.42773438 5.4375 18.32421875 C5.01027953 20.93712964 4.92383799 23.35813038 5 26 C6.98 26 8.96 26 11 26 C10.01 21.05 9.02 16.1 8 11 C7.67 11 7.34 11 7 11 Z " fill="#FBFCFE" transform="translate(203,237)"/>
<path d="M0 0 C5.28 0 10.56 0 16 0 C17.71059175 6.24752692 19.41954494 12.49549877 21.12695312 18.74389648 C21.70852898 20.87129967 22.29055955 22.99857861 22.87304688 25.12573242 C23.70821621 28.17594696 24.5417714 31.22659857 25.375 34.27734375 C25.63748535 35.23462875 25.8999707 36.19191376 26.17041016 37.1782074 C26.41065918 38.05904495 26.6509082 38.93988251 26.8984375 39.84741211 C27.21820557 41.0165641 27.21820557 41.0165641 27.54443359 42.20933533 C28 44 28 44 28 45 C23.71 45 19.42 45 15 45 C13 40 13 40 13 36 C8.05 36.495 8.05 36.495 3 37 C2.34 39.64 1.68 42.28 1 45 C-3.29 45 -7.58 45 -12 45 C-10.61527595 39.5549446 -9.22765825 34.1106378 -7.83740234 28.66699219 C-7.3652597 26.81660726 -6.89389607 24.96602337 -6.42333984 23.11523438 C-5.74523375 20.44868608 -5.06429132 17.78287557 -4.3828125 15.1171875 C-4.17439728 14.29507782 -3.96598206 13.47296814 -3.75125122 12.62594604 C-3.55119476 11.8455899 -3.35113831 11.06523376 -3.14501953 10.26123047 C-2.97181183 9.58172333 -2.79860413 8.90221619 -2.62014771 8.20211792 C-1.84213455 5.43942656 -0.90762151 2.72286453 0 0 Z M7 11 C6.66048381 12.56116819 6.32867456 14.12401338 6 15.6875 C5.814375 16.55761719 5.62875 17.42773438 5.4375 18.32421875 C5.01027953 20.93712964 4.92383799 23.35813038 5 26 C6.98 26 8.96 26 11 26 C10.01 21.05 9.02 16.1 8 11 C7.67 11 7.34 11 7 11 Z " fill="#FBFCFD" transform="translate(107,237)"/>
<path d="M0 0 C5.28 0 10.56 0 16 0 C17.71059175 6.24752692 19.41954494 12.49549877 21.12695312 18.74389648 C21.70852898 20.87129967 22.29055955 22.99857861 22.87304688 25.12573242 C23.70821621 28.17594696 24.5417714 31.22659857 25.375 34.27734375 C25.63748535 35.23462875 25.8999707 36.19191376 26.17041016 37.1782074 C26.41065918 38.05904495 26.6509082 38.93988251 26.8984375 39.84741211 C27.21820557 41.0165641 27.21820557 41.0165641 27.54443359 42.20933533 C28 44 28 44 28 45 C23.71 45 19.42 45 15 45 C13 40 13 40 13 36 C8.05 36.495 8.05 36.495 3 37 C2.34 39.64 1.68 42.28 1 45 C-3.29 45 -7.58 45 -12 45 C-10.61527595 39.5549446 -9.22765825 34.1106378 -7.83740234 28.66699219 C-7.3652597 26.81660726 -6.89389607 24.96602337 -6.42333984 23.11523438 C-5.74523375 20.44868608 -5.06429132 17.78287557 -4.3828125 15.1171875 C-4.17439728 14.29507782 -3.96598206 13.47296814 -3.75125122 12.62594604 C-3.55119476 11.8455899 -3.35113831 11.06523376 -3.14501953 10.26123047 C-2.97181183 9.58172333 -2.79860413 8.90221619 -2.62014771 8.20211792 C-1.84213455 5.43942656 -0.90762151 2.72286453 0 0 Z M7 11 C6.66048381 12.56116819 6.32867456 14.12401338 6 15.6875 C5.814375 16.55761719 5.62875 17.42773438 5.4375 18.32421875 C5.01027953 20.93712964 4.92383799 23.35813038 5 26 C6.98 26 8.96 26 11 26 C10.01 21.05 9.02 16.1 8 11 C7.67 11 7.34 11 7 11 Z " fill="#FBFCFD" transform="translate(13,237)"/>
<path d="M0 0 C8.91 0 17.82 0 27 0 C27 3.3 27 6.6 27 10 C22.05 10 17.1 10 12 10 C12 12.31 12 14.62 12 17 C16.62 17 21.24 17 26 17 C26 20.3 26 23.6 26 27 C21.38 27 16.76 27 12 27 C12 29.64 12 32.28 12 35 C17.28 35 22.56 35 28 35 C28 38.3 28 41.6 28 45 C18.76 45 9.52 45 0 45 C0 30.15 0 15.3 0 0 Z " fill="#FCFDFE" transform="translate(386,237)"/>
<path d="M0 0 C0.88236328 -0.02900391 1.76472656 -0.05800781 2.67382812 -0.08789062 C8.80055469 -0.14675792 13.31688982 0.85598912 18.4375 4.3125 C21.52187658 7.49326335 21.68384148 10.47500032 21.875 14.75 C21.70765703 19.73012684 21.02157762 22.63882044 17.4375 26.3125 C12.17361459 30.02749877 7.78355434 30.7657896 1.4375 30.3125 C1.4375 35.2625 1.4375 40.2125 1.4375 45.3125 C-2.5225 45.3125 -6.4825 45.3125 -10.5625 45.3125 C-10.58714455 39.06453746 -10.60533343 32.81660297 -10.61743164 26.56860352 C-10.62247298 24.44131986 -10.62930591 22.31403969 -10.63793945 20.18676758 C-10.65001379 17.13622174 -10.65573014 14.08572155 -10.66015625 11.03515625 C-10.66531754 10.07787125 -10.67047882 9.12058624 -10.67579651 8.1342926 C-10.67587204 7.25345505 -10.67594757 6.37261749 -10.67602539 5.46508789 C-10.678246 4.68565323 -10.68046661 3.90621857 -10.68275452 3.10316467 C-10.36611623 -1.61177673 -3.55813355 0.03782566 0 0 Z M1.4375 9.3125 C1.4375 12.9425 1.4375 16.5725 1.4375 20.3125 C2.4275 20.8075 2.4275 20.8075 3.4375 21.3125 C6.04681266 20.41886395 6.04681266 20.41886395 8.4375 19.3125 C8.7675 17.0025 9.0975 14.6925 9.4375 12.3125 C6.37632432 9.68863513 5.70576873 9.3125 1.4375 9.3125 Z " fill="#FCFDFE" transform="translate(283.5625,236.6875)"/>
<path d="M0 0 C0.88236328 -0.02900391 1.76472656 -0.05800781 2.67382812 -0.08789062 C8.80055469 -0.14675792 13.31688982 0.85598912 18.4375 4.3125 C21.52187658 7.49326335 21.68384148 10.47500032 21.875 14.75 C21.70765703 19.73012684 21.02157762 22.63882044 17.4375 26.3125 C12.17361459 30.02749877 7.78355434 30.7657896 1.4375 30.3125 C1.4375 35.2625 1.4375 40.2125 1.4375 45.3125 C-2.5225 45.3125 -6.4825 45.3125 -10.5625 45.3125 C-10.58714455 39.06453746 -10.60533343 32.81660297 -10.61743164 26.56860352 C-10.62247298 24.44131986 -10.62930591 22.31403969 -10.63793945 20.18676758 C-10.65001379 17.13622174 -10.65573014 14.08572155 -10.66015625 11.03515625 C-10.66531754 10.07787125 -10.67047882 9.12058624 -10.67579651 8.1342926 C-10.67587204 7.25345505 -10.67594757 6.37261749 -10.67602539 5.46508789 C-10.678246 4.68565323 -10.68046661 3.90621857 -10.68275452 3.10316467 C-10.36611623 -1.61177673 -3.55813355 0.03782566 0 0 Z M1.4375 9.3125 C1.4375 12.9425 1.4375 16.5725 1.4375 20.3125 C2.4275 20.8075 2.4275 20.8075 3.4375 21.3125 C6.04681266 20.41886395 6.04681266 20.41886395 8.4375 19.3125 C8.7675 17.0025 9.0975 14.6925 9.4375 12.3125 C6.37632432 9.68863513 5.70576873 9.3125 1.4375 9.3125 Z " fill="#FCFDFE" transform="translate(245.5625,236.6875)"/>
<path d="M0 0 C-0.66 3.63 -1.32 7.26 -2 11 C-3.32 10.67 -4.64 10.34 -6 10 C-7.58211573 9.93451508 -9.16670081 9.91421619 -10.75 9.9375 C-11.94882812 9.95103516 -11.94882812 9.95103516 -13.171875 9.96484375 C-13.77515625 9.97644531 -14.3784375 9.98804688 -15 10 C-15.33 11.32 -15.66 12.64 -16 14 C-15.175 14.226875 -14.35 14.45375 -13.5 14.6875 C-8.04052136 16.73480449 -1.78161669 19.60039113 1 25 C2.40925208 29.87818027 1.87715796 33.3071051 0 38 C-3.24286284 42.05357855 -5.91371331 43.98274266 -11 45 C-17.27992534 45.40599242 -23.14132565 45.60385527 -29 43 C-28.88590407 41.54077307 -28.75834456 40.08259402 -28.625 38.625 C-28.55539063 37.81289063 -28.48578125 37.00078125 -28.4140625 36.1640625 C-28 34 -28 34 -26 32 C-24.4840625 32.5259375 -24.4840625 32.5259375 -22.9375 33.0625 C-19.07662622 34.1892448 -15.94605414 33.80531717 -12 33 C-12.09557706 31.07989204 -12.09557706 31.07989204 -13 29 C-15.39777013 27.37922858 -15.39777013 27.37922858 -18.3125 26.0625 C-25.82287776 22.15632428 -25.82287776 22.15632428 -28 18 C-29.22443467 13.82302784 -29.30786532 10.88938871 -27.875 6.75 C-24.34777909 1.57674267 -20.67483991 -0.6426834 -14.625 -1.828125 C-9.60479094 -2.15682916 -4.9036974 -1.01455808 0 0 Z " fill="#F9FBFD" transform="translate(72,238)"/>
<path d="M0 0 C3.96 0 7.92 0 12 0 C12 11.55 12 23.1 12 35 C16.95 35 21.9 35 27 35 C27 38.3 27 41.6 27 45 C18.09 45 9.18 45 0 45 C0 30.15 0 15.3 0 0 Z " fill="#FDFDFE" transform="translate(419,237)"/>
<path d="M0 0 C3.96 0 7.92 0 12 0 C12 14.85 12 29.7 12 45 C8.04 45 4.08 45 0 45 C0 30.15 0 15.3 0 0 Z " fill="#FCFDFE" transform="translate(79,237)"/>
</svg>
