<?xml version="1.0" encoding="UTF-8"?>
<svg version="1.1" xmlns="http://www.w3.org/2000/svg" width="456" height="456">
<path d="M0 0 C44.6924221 -0.79365011 86.25413621 13.25561551 119.97265625 42.875 C122.5593293 45.19888697 122.5593293 45.19888697 125.58203125 47.125 C125.58203125 47.785 125.58203125 48.445 125.58203125 49.125 C126.24203125 49.125 126.90203125 49.125 127.58203125 49.125 C127.58203125 49.785 127.58203125 50.445 127.58203125 51.125 C128.24203125 51.125 128.90203125 51.125 129.58203125 51.125 C129.58203125 51.785 129.58203125 52.445 129.58203125 53.125 C130.24203125 53.125 130.90203125 53.125 131.58203125 53.125 C134.81183485 56.59379541 137.66248925 60.39351437 140.58203125 64.125 C141.33355469 65.07375 142.08507812 66.0225 142.859375 67 C161.74926165 91.43401859 172.80772728 119.5496752 176.58203125 150.125 C176.67629395 150.82995605 176.77055664 151.53491211 176.86767578 152.26123047 C179.07093881 169.85974467 177.92749638 187.76313231 174.58203125 205.125 C174.42105957 205.97481445 174.26008789 206.82462891 174.09423828 207.70019531 C168.86408016 234.33833014 157.61275258 256.66158122 141.78369141 278.44604492 C140.68378971 279.98282347 139.63032247 281.55256318 138.58203125 283.125 C137.92203125 283.125 137.26203125 283.125 136.58203125 283.125 C136.34742188 283.67542969 136.1128125 284.22585938 135.87109375 284.79296875 C131.49979054 292.70105365 123.55419395 299.50582691 116.58203125 305.125 C115.6384375 305.89457031 114.69484375 306.66414063 113.72265625 307.45703125 C77.1076618 336.77865612 30.7790033 348.94559966 -15.65820312 344.10913086 C-52.81476823 339.83077352 -85.81849583 325.03191123 -113.54296875 299.8125 C-114.10008545 299.3086377 -114.65720215 298.80477539 -115.23120117 298.28564453 C-117.92222456 295.78005019 -120.08454689 293.59025064 -121.41796875 290.125 C-122.07796875 290.125 -122.73796875 290.125 -123.41796875 290.125 C-123.41796875 289.465 -123.41796875 288.805 -123.41796875 288.125 C-124.07796875 288.125 -124.73796875 288.125 -125.41796875 288.125 C-129.41796875 283.65441176 -129.41796875 283.65441176 -129.41796875 281.125 C-130.07796875 281.125 -130.73796875 281.125 -131.41796875 281.125 C-133.25858922 278.70091487 -134.97852501 276.27672003 -136.66796875 273.75 C-137.16594971 273.01193115 -137.66393066 272.2738623 -138.17700195 271.51342773 C-139.60109552 269.3906608 -141.01241028 267.26007244 -142.41796875 265.125 C-143.00449219 264.23683594 -143.59101563 263.34867187 -144.1953125 262.43359375 C-168.09861735 224.36046275 -173.92990964 176.23844654 -164.50390625 132.80078125 C-163.5995277 128.86902589 -162.53596597 125.00153385 -161.41796875 121.125 C-161.0828125 119.94292969 -160.74765625 118.76085937 -160.40234375 117.54296875 C-155.55147576 101.77764779 -148.28072032 86.36980623 -138.41796875 73.125 C-137.68320313 72.10792969 -136.9484375 71.09085937 -136.19140625 70.04296875 C-131.47130614 63.62499792 -126.32588 57.66055783 -120.91796875 51.8125 C-120.30614746 51.14758545 -119.69432617 50.4826709 -119.06396484 49.79760742 C-118.48984863 49.18763916 -117.91573242 48.5776709 -117.32421875 47.94921875 C-116.81181641 47.40354248 -116.29941406 46.85786621 -115.77148438 46.2956543 C-114.41796875 45.125 -114.41796875 45.125 -112.41796875 45.125 C-112.41796875 44.465 -112.41796875 43.805 -112.41796875 43.125 C-81.98341566 14.47667351 -40.92088804 1.49653533 0 0 Z M-100.45703125 61.375 C-102.41796875 63.125 -102.41796875 63.125 -104.41796875 64.125 C-104.41796875 64.785 -104.41796875 65.445 -104.41796875 66.125 C-105.07796875 66.125 -105.73796875 66.125 -106.41796875 66.125 C-106.41796875 66.785 -106.41796875 67.445 -106.41796875 68.125 C-107.07796875 68.125 -107.73796875 68.125 -108.41796875 68.125 C-110.18162336 70.08461623 -111.80736677 72.04394727 -113.41796875 74.125 C-113.90491211 74.75148437 -114.39185547 75.37796875 -114.89355469 76.0234375 C-136.45411231 104.26846574 -147.63653541 136.50323285 -147.66796875 172 C-147.66864349 172.68685883 -147.66931824 173.37371765 -147.67001343 174.08139038 C-147.65251221 185.33139894 -146.96607641 196.14004768 -144.41796875 207.125 C-144.25167969 207.86427734 -144.08539063 208.60355469 -143.9140625 209.36523438 C-140.01429825 226.19199496 -133.18794529 241.8628839 -123.41796875 256.125 C-123.00095703 256.73520996 -122.58394531 257.34541992 -122.15429688 257.97412109 C-98.46142216 292.19811755 -63.60404202 314.31390242 -22.953125 322.36328125 C16.406874 329.38194774 58.02614244 320.95551209 91.01977539 298.53833008 C98.23704624 293.48211173 104.72299813 287.74789866 111.04150391 281.61865234 C112.548451 280.15755847 114.07018035 278.71325447 115.59375 277.26953125 C121.42215058 271.63196506 126.23047286 265.95374422 130.58203125 259.125 C131.37046785 257.94098923 132.15957831 256.757427 132.94921875 255.57421875 C142.82248586 240.55025839 149.69435069 224.69167663 153.58203125 207.125 C153.84169678 205.97837891 154.1013623 204.83175781 154.36889648 203.65039062 C156.57488215 193.35508344 157.10241284 183.38257394 157.01953125 172.875 C157.01546768 171.66126205 157.01546768 171.66126205 157.01132202 170.42300415 C156.94800132 157.93064608 156.09366704 146.17512381 152.58203125 134.125 C152.39479492 133.43293457 152.20755859 132.74086914 152.01464844 132.02783203 C147.98152926 117.14569191 141.8174363 103.16147098 133.58203125 90.125 C133.23430664 89.57199219 132.88658203 89.01898438 132.52832031 88.44921875 C129.21363905 83.17701573 129.21363905 83.17701573 125.58203125 78.125 C124.92203125 78.125 124.26203125 78.125 123.58203125 78.125 C123.32035156 77.54621094 123.05867188 76.96742188 122.7890625 76.37109375 C119.6899274 70.60409478 114.39827982 65.52842726 109.58203125 61.125 C108.92203125 61.125 108.26203125 61.125 107.58203125 61.125 C107.58203125 60.465 107.58203125 59.805 107.58203125 59.125 C101.81934345 53.78338542 95.23968383 49.27286125 88.58203125 45.125 C87.99566895 44.75616699 87.40930664 44.38733398 86.80517578 44.00732422 C27.82040726 7.16561038 -49.2662196 13.66317555 -100.45703125 61.375 Z " fill="#FEFEFE" transform="translate(223.41796875,55.875)"/>
<path d="M0 0 C1.4530957 -0.01836914 1.4530957 -0.01836914 2.93554688 -0.03710938 C18.01540368 -0.06728921 31.46705079 3.14778897 42.55859375 13.84765625 C51.27923229 23.43235806 52.86859393 33.34491609 52.9375 45.9375 C52.958125 46.89527344 52.97875 47.85304687 53 48.83984375 C53.00773437 50.21076172 53.00773437 50.21076172 53.015625 51.609375 C53.0249707 52.44049805 53.03431641 53.27162109 53.04394531 54.12792969 C52.92631836 54.80758789 52.80869141 55.48724609 52.6875 56.1875 C48.77894429 58.79320381 45.46686262 58.47520167 40.93359375 58.453125 C40.07693619 58.45503845 39.22027863 58.4569519 38.33766174 58.45892334 C36.52792059 58.46028373 34.71816964 58.45659747 32.90844727 58.44824219 C30.13210251 58.43752741 27.3564029 58.44814904 24.58007812 58.4609375 C22.82291523 58.45961614 21.06575274 58.45705422 19.30859375 58.453125 C18.47525009 58.45717346 17.64190643 58.46122192 16.78330994 58.46539307 C10.91742731 58.41742731 10.91742731 58.41742731 8.6875 56.1875 C8.40039062 53.91259766 8.40039062 53.91259766 8.34375 51.1015625 C8.31410156 50.08835938 8.28445313 49.07515625 8.25390625 48.03125 C8.23199219 46.9690625 8.21007812 45.906875 8.1875 44.8125 C8.14403689 42.72115724 8.09227892 40.62996638 8.03125 38.5390625 C8.00321289 37.14421631 8.00321289 37.14421631 7.97460938 35.72119141 C7.67845595 33.10768778 7.01050146 31.43937524 5.6875 29.1875 C3.3775 29.1875 1.0675 29.1875 -1.3125 29.1875 C-3.84911815 34.04850928 -3.64446339 38.78035383 -3.625 44.125 C-3.64111328 45.00607422 -3.65722656 45.88714844 -3.67382812 46.79492188 C-3.67770049 51.96452741 -3.48297015 55.89141914 -0.3125 60.1875 C6.45583761 65.93912991 15.56999519 68.31679442 23.78125 71.26171875 C35.31433711 75.52571222 48.02494277 80.67172336 53.73828125 92.33203125 C55.64689868 97.20759901 56.80254406 101.75114892 56.86450195 106.96508789 C56.88375481 108.38290306 56.88375481 108.38290306 56.90339661 109.82936096 C56.91078354 110.84602341 56.91817047 111.86268585 56.92578125 112.91015625 C56.933853 113.96601425 56.94192474 115.02187225 56.95024109 116.10972595 C56.96406769 118.34649013 56.9747962 120.58327529 56.98266602 122.82006836 C56.99415899 125.09422033 57.01456787 127.3683459 57.04418945 129.64233398 C57.08713633 132.94012664 57.10307535 136.23711764 57.11328125 139.53515625 C57.13078934 140.53764908 57.14829742 141.54014191 57.16633606 142.57301331 C57.13724273 152.19209049 54.56358459 162.10754228 47.6875 169.1875 C40.69225155 175.41684534 30.62749838 177.12964956 21.5 177.5625 C12.25661325 176.65331442 2.42448276 173.92448276 -4.3125 167.1875 C-5.0240625 168.8890625 -5.0240625 168.8890625 -5.75 170.625 C-7.3125 174.1875 -7.3125 174.1875 -8.3125 175.1875 C-11.08903799 175.31337684 -13.83934327 175.37616866 -16.6171875 175.390625 C-17.45210724 175.39632507 -18.28702698 175.40202515 -19.14724731 175.40789795 C-20.91765062 175.41736258 -22.68807167 175.42388772 -24.45849609 175.42773438 C-27.16925798 175.43743472 -29.8792602 175.46844145 -32.58984375 175.5 C-34.30728715 175.50653028 -36.02473599 175.51178065 -37.7421875 175.515625 C-38.96106155 175.5341452 -38.96106155 175.5341452 -40.20455933 175.55303955 C-45.80930336 175.53082956 -45.80930336 175.53082956 -48.02700233 174.0177002 C-49.82209757 171.4619712 -49.69001056 169.65866183 -49.69345093 166.54785156 C-49.7019104 165.37322861 -49.71036987 164.19860565 -49.71908569 162.98838806 C-49.70997665 161.05280785 -49.70997665 161.05280785 -49.70068359 159.078125 C-49.7047486 157.70638104 -49.71009008 156.33464035 -49.71661377 154.96290588 C-49.73031214 151.23304371 -49.72497574 147.50343001 -49.71547651 143.77356339 C-49.70788065 139.86425355 -49.71492646 135.95496498 -49.71963501 132.0456543 C-49.72509796 125.47164092 -49.71789227 118.89772852 -49.70361328 112.32373047 C-49.68733995 104.74448302 -49.69253417 97.16547836 -49.7090925 89.58623695 C-49.72275708 83.06884003 -49.72460122 76.55151576 -49.71677649 70.03410912 C-49.71212017 66.14651905 -49.71141735 62.25904255 -49.72138596 58.37145996 C-49.73012396 54.70732876 -49.72391067 51.04350614 -49.70670319 47.37940788 C-49.70091251 45.40988959 -49.70969921 43.44034489 -49.71908569 41.47084045 C-49.64559536 31.07051413 -48.41195026 20.36475459 -41.3125 12.1875 C-40.6525 12.1875 -39.9925 12.1875 -39.3125 12.1875 C-39.3125 11.5275 -39.3125 10.8675 -39.3125 10.1875 C-28.51982132 0.85500726 -13.53573014 0.00889923 0 0 Z M-3.3125 88.1875 C-3.41384735 95.66215445 -3.4839435 103.136632 -3.53222656 110.61181641 C-3.55235272 113.15517803 -3.57965637 115.69849333 -3.61425781 118.24169922 C-3.6627297 121.89562404 -3.68545916 125.54893756 -3.703125 129.203125 C-3.72377014 130.34179016 -3.74441528 131.48045532 -3.76568604 132.65362549 C-3.76598816 133.71442322 -3.76629028 134.77522095 -3.76660156 135.86816406 C-3.77548401 136.80082092 -3.78436646 137.73347778 -3.79351807 138.69439697 C-3.16118028 141.97178583 -1.93248893 143.18075807 0.6875 145.1875 C4.3860004 145.03955998 6.04555573 144.82944427 8.6875 142.1875 C10.22407708 135.5601338 9.87353427 128.72911263 9.87280273 121.96533203 C9.87499359 119.69414647 9.89319582 117.42344389 9.91210938 115.15234375 C9.91504322 113.69531414 9.91702808 112.23828226 9.91796875 110.78125 C9.92207764 109.46833984 9.92618652 108.15542969 9.93041992 106.80273438 C9.59375252 101.79231137 8.71999802 98.39208102 5.4375 94.5625 C2.65566927 92.16000982 -0.240799 90.19853077 -3.3125 88.1875 Z " fill="#FEFEFE" transform="translate(305.3125,132.8125)"/>
<path d="M0 0 C7.52002691 6.67726527 9.49647955 14.00195717 10.32434082 23.86361694 C10.55128305 28.37968631 10.61287117 32.89715087 10.671875 37.41796875 C10.70410824 39.15790607 10.7370693 40.89783004 10.77069092 42.63774109 C10.87451822 48.42491162 10.94162354 54.21221128 11 60 C11.0104837 61.02881538 11.02096741 62.05763077 11.0317688 63.11762238 C11.17276021 77.55566353 11.22824544 91.99320903 11.24023438 106.43188477 C11.2458499 112.26423511 11.27024489 118.09636703 11.29820633 123.92864704 C11.31673375 128.46921991 11.32203168 133.00973698 11.32357025 137.55034447 C11.32659006 139.705388 11.3345958 141.8604307 11.34775543 144.01543617 C11.36470055 146.98744482 11.36297122 149.95887169 11.35644531 152.9309082 C11.3656601 153.81105591 11.37487488 154.69120361 11.3843689 155.59802246 C11.34325336 161.53787924 11.34325336 161.53787924 9.71909714 163.72447491 C6.68331123 165.97694861 2.91873928 165.40373171 -0.71875 165.36328125 C-1.57303589 165.36377975 -2.42732178 165.36427826 -3.30749512 165.36479187 C-5.11306078 165.36245215 -6.91862975 165.35272957 -8.72412109 165.33618164 C-11.48955415 165.31258912 -14.25402313 165.31562132 -17.01953125 165.32226562 C-18.77344325 165.31668878 -20.52735119 165.30957886 -22.28125 165.30078125 C-23.52352356 165.30214836 -23.52352356 165.30214836 -24.79089355 165.30354309 C-28.69791331 165.25523361 -30.67716382 165.21522412 -34 163 C-35.1875 159.875 -35.1875 159.875 -36 157 C-36.70962891 157.59748047 -36.70962891 157.59748047 -37.43359375 158.20703125 C-46.08143248 165.13541667 -54.93501166 167.21949218 -66 167 C-75.30735621 165.64803109 -83.62183913 162.797456 -89.55822754 155.17819214 C-94.71580972 147.38625182 -95.6013598 138.97997912 -95.53125 129.8671875 C-95.5350769 128.74990265 -95.53890381 127.6326178 -95.54284668 126.48147583 C-95.54555043 124.1368926 -95.53829796 121.79227841 -95.52148438 119.44775391 C-95.50001348 115.87724188 -95.52136126 112.30873251 -95.546875 108.73828125 C-95.54423224 106.44791227 -95.53910835 104.15754452 -95.53125 101.8671875 C-95.53934692 100.81071014 -95.54744385 99.75423279 -95.55578613 98.66574097 C-95.42543528 88.27692389 -91.98670961 80.92027244 -84.84375 73.40625 C-79.24349816 68.66757537 -72.67708179 65.88782768 -66 63 C-65.10941895 62.61392578 -64.21883789 62.22785156 -63.30126953 61.83007812 C-59.57299599 60.22112182 -55.84368043 58.61666447 -52.09472656 57.05639648 C-47.84519761 55.28092492 -43.93059778 53.4194165 -40 51 C-39.34 51 -38.68 51 -38 51 C-35.55965217 45.30907028 -35.73669252 39.94757797 -35.8125 33.875 C-35.81314453 32.88628906 -35.81378906 31.89757812 -35.81445312 30.87890625 C-35.84094996 24.86911848 -35.84094996 24.86911848 -37 19 C-39.64 18.67 -42.28 18.34 -45 18 C-45 18.66 -45 19.32 -45 20 C-45.66 20 -46.32 20 -47 20 C-46.99476318 20.7113208 -46.98952637 21.4226416 -46.98413086 22.15551758 C-46.96335982 25.37450275 -46.95033942 28.59347383 -46.9375 31.8125 C-46.92912109 32.93205078 -46.92074219 34.05160156 -46.91210938 35.20507812 C-46.90888672 36.27822266 -46.90566406 37.35136719 -46.90234375 38.45703125 C-46.89710693 39.44678955 -46.89187012 40.43654785 -46.88647461 41.45629883 C-47 44 -47 44 -48 47 C-51.36639276 48.68319638 -55.17240689 48.16316848 -58.875 48.16796875 C-59.75526855 48.17129715 -60.63553711 48.17462555 -61.54248047 48.17805481 C-63.40526811 48.18312167 -65.26806485 48.18546321 -67.13085938 48.18530273 C-69.98843226 48.18749114 -72.84562037 48.20565453 -75.703125 48.22460938 C-77.51041534 48.2275429 -79.31770752 48.22952797 -81.125 48.23046875 C-81.98335449 48.23765427 -82.84170898 48.24483978 -83.72607422 48.25224304 C-89.77117421 48.22882579 -89.77117421 48.22882579 -92 46 C-93.06287325 32.11363004 -92.71924171 18.68500903 -83.94140625 7.25 C-65.60694157 -13.99879608 -22.23664445 -17.78931556 0 0 Z M-39.875 80.75 C-40.92300781 81.51570313 -40.92300781 81.51570313 -41.9921875 82.296875 C-45.37320312 85.16481821 -47.12432277 87.66908714 -48 92 C-48.10719852 94.86247063 -48.16397683 97.69987699 -48.16796875 100.5625 C-48.17129715 101.39080322 -48.17462555 102.21910645 -48.17805481 103.07250977 C-48.18310903 104.82079514 -48.1854636 106.56909013 -48.18530273 108.31738281 C-48.18749213 110.99039562 -48.20567154 113.6629975 -48.22460938 116.3359375 C-48.22754303 118.03645692 -48.22952801 119.73697831 -48.23046875 121.4375 C-48.23765427 122.23551025 -48.24483978 123.03352051 -48.25224304 123.85571289 C-48.3241647 129.28570505 -48.3241647 129.28570505 -46 134 C-42.58333333 135.08333333 -42.58333333 135.08333333 -39 135 C-36.3520265 133.23468433 -36.0230014 132.06900421 -35 129 C-34.91245202 127.32779029 -34.88234005 125.65227801 -34.88647461 123.9777832 C-34.88658791 122.44653557 -34.88658791 122.44653557 -34.88670349 120.88435364 C-34.89186478 119.78427475 -34.89702606 118.68419586 -34.90234375 117.55078125 C-34.9037587 116.4230278 -34.90517365 115.29527435 -34.90663147 114.13334656 C-34.9122353 110.52637088 -34.92478847 106.91945696 -34.9375 103.3125 C-34.94251451 100.86914152 -34.9470775 98.42578207 -34.95117188 95.98242188 C-34.96220597 89.98826013 -34.97894785 83.99413448 -35 78 C-36.90388006 78 -38.40617984 79.66318069 -39.875 80.75 Z " fill="#FEFEFE" transform="translate(189,143)"/>
<path d="M0 0 C1.1149585 -0.00430527 1.1149585 -0.00430527 2.25244141 -0.00869751 C3.8225989 -0.01073726 5.39278186 -0.0052135 6.96289062 0.00732422 C9.36646332 0.02338047 11.76835461 0.00747398 14.171875 -0.01171875 C15.69792038 -0.0097363 17.22396471 -0.00589259 18.75 0 C19.46881348 -0.00607269 20.18762695 -0.01214539 20.92822266 -0.0184021 C25.84824486 0.05095745 25.84824486 0.05095745 28.0641489 1.5127039 C30.01211645 4.31496563 29.75582242 6.56768666 29.76268005 9.95835876 C29.76806559 10.62780236 29.77345113 11.29724596 29.77899987 11.98697573 C29.7933316 14.2349112 29.78616326 16.48226213 29.77905273 18.73022461 C29.78475362 20.33992488 29.79171678 21.9496211 29.79985046 23.55931091 C29.8178286 27.93535339 29.81660475 32.31119586 29.81090808 36.6872642 C29.80782283 40.33799967 29.81390128 43.98869634 29.81994683 47.63942629 C29.83400582 56.25077975 29.83241945 64.86203403 29.82104492 73.47338867 C29.80956284 82.36270013 29.82363769 91.25170992 29.8504414 100.14098161 C29.87258024 107.76823936 29.87923987 115.39540228 29.87336498 123.02268988 C29.86998977 127.58022727 29.87244772 132.13757128 29.88961601 136.69508171 C29.90505418 140.98055973 29.90116472 145.26559006 29.88231087 149.55105019 C29.87861622 151.12484017 29.88175891 152.69866309 29.89219666 154.27242279 C29.90534961 156.41931255 29.89391233 158.56470774 29.87620544 160.71153259 C29.87599616 161.91334136 29.87578688 163.11515013 29.87557125 164.35337734 C29.27262494 168.02120244 28.33199908 169.20661712 25.375 171.3984375 C22.046875 171.90014648 22.046875 171.90014648 18.125 171.89453125 C17.42987305 171.89598648 16.73474609 171.89744171 16.01855469 171.89894104 C14.55269162 171.8972852 13.08681061 171.88575885 11.62109375 171.86499023 C9.38205853 171.8360288 7.1453921 171.84438645 4.90625 171.85742188 C3.4791552 171.85118394 2.05206786 171.84279256 0.625 171.83203125 C-0.66921875 171.82228271 -1.9634375 171.81253418 -3.296875 171.80249023 C-6.9327862 171.36107056 -8.11437637 170.99748574 -10.625 168.3984375 C-11.12557125 165.4608078 -11.12557125 165.4608078 -11.12620544 161.79382324 C-11.13450704 160.78247417 -11.13450704 160.78247417 -11.14297634 159.7506938 C-11.15661399 157.48641818 -11.14159817 155.22323899 -11.12670898 152.95898438 C-11.13049106 151.33780956 -11.13599018 149.71663796 -11.14308167 148.09547424 C-11.15706822 143.68842937 -11.14584423 139.2817735 -11.12937045 134.87475014 C-11.11554258 130.26769309 -11.12197744 125.66065916 -11.12550354 121.05358887 C-11.12820746 113.31609816 -11.11471448 105.57876243 -11.09155273 97.84130859 C-11.06494183 88.88952923 -11.06319521 79.93800903 -11.0749411 70.98620367 C-11.08571191 62.38286357 -11.0795373 53.77961742 -11.06538582 45.17628479 C-11.05961995 41.51125372 -11.0597134 37.84629126 -11.06445122 34.18125916 C-11.06921568 29.86709938 -11.05914153 25.55322419 -11.03749657 21.23911858 C-11.03192125 19.65362953 -11.03147021 18.06811318 -11.03644943 16.48262215 C-11.04238377 14.32244716 -11.02993415 12.16314772 -11.01268005 10.00305176 C-11.01025016 8.79294685 -11.00782026 7.58284195 -11.00531673 6.3360672 C-10.625 3.3984375 -10.625 3.3984375 -9.3141489 1.50991058 C-6.46838727 -0.36262265 -3.29414657 -0.02782967 0 0 Z " fill="#FEFEFE" transform="translate(218.625,136.6015625)"/>
</svg>
