<svg xmlns="http://www.w3.org/2000/svg" height="16" width="14" viewBox="0 0 448 512"><!--!Font Awesome Free 6.5.1 by @fontawesome - https://fontawesome.com License - https://fontawesome.com/license/free Copyright 2023 Fonticons, Inc.--><path opacity="1" fill="#ffffff" d="M436 160H12c-6.6 0-12-5.4-12-12v-36c0-26.5 21.5-48 48-48h48V12c0-6.6 5.4-12 12-12h40c6.6 0 12 5.4 12 12v52h128V12c0-6.6 5.4-12 12-12h40c6.6 0 12 5.4 12 12v52h48c26.5 0 48 21.5 48 48v36c0 6.6-5.4 12-12 12zM12 192h424c6.6 0 12 5.4 12 12v260c0 26.5-21.5 48-48 48H48c-26.5 0-48-21.5-48-48V204c0-6.6 5.4-12 12-12zm333.3 95.9l-28.2-28.4c-4.7-4.7-12.3-4.7-17-.1L194.1 364.7l-46-46.4c-4.7-4.7-12.3-4.7-17-.1l-28.4 28.2c-4.7 4.7-4.7 12.3-.1 17l82.6 83.3c4.7 4.7 12.3 4.7 17 .1l143-141.8c4.7-4.7 4.7-12.3 .1-17z"/></svg>