<svg xmlns="http://www.w3.org/2000/svg" viewBox="0 0 512 512"><!--!Font Awesome Free 6.5.1 by @fontawesome - https://fontawesome.com License - https://fontawesome.com/license/free Copyright 2024 Fonticons, Inc.--><path fill="#ffffff" d="M256.1 246c-13.3 0-24 10.7-24 24 1.1 72.3-8.1 141.9-27.7 211.6-2.7 9.7 2.2 30.5 23.1 30.5 10.5 0 20.1-6.9 23.1-17.5 13.5-47.9 31-125.4 29.5-224.5 0-13.3-10.7-24-24-24zm-.9-81.7C194 164.2 151.3 211.3 152.1 265.3c.8 47.9-3.8 95.9-13.4 142.6-2.7 13 5.7 25.7 18.6 28.4 13.1 2.7 25.7-5.7 28.4-18.6 10.3-50.1 15.2-101.6 14.4-153-.4-26 19.9-52.5 54.5-52.3 31.3 .5 57.2 25.3 57.6 55.5 .8 48.1-2.8 96.3-10.6 143.6-2.2 13.1 6.7 25.4 19.8 27.6 20 3.3 26.8-15.1 27.6-19.8 8.3-50 12.1-101.2 11.3-152.1-.9-55.8-47.9-101.9-104.9-102.7zm-110.7-19.8c-10.3-8.3-25.4-6.8-33.8 3.5-25.6 31.5-39.4 71.3-38.8 112 .6 37.6-2.5 75.3-9.1 112.1-2.3 13.1 6.3 25.5 19.4 27.9 20.1 3.5 27.1-14.8 27.9-19.4 7.2-39.8 10.5-80.7 9.9-121.3-.5-29.9 9.2-57.9 28-81 8.4-10.3 6.8-25.4-3.5-33.8zm109.5-62.3c-15.4-.4-30.9 1.4-45.8 5-12.9 3.1-20.9 16-17.8 28.9 3.1 12.9 16 20.8 28.9 17.8 11.1-2.6 22.5-3.8 34-3.7 75.4 1.1 137.7 61.5 138.9 134.6 .6 37.9-1.3 76.1-5.6 113.6-1.5 13.2 8 25.1 21.1 26.6 16.7 2 25.5-11.9 26.6-21.1a929.1 929.1 0 0 0 5.9-119.9c-1.6-98.8-85.1-180.3-186.2-181.8zm252.1 121.5c-2.9-12.9-15.5-21.2-28.6-18.3-12.9 2.9-21.1 15.7-18.3 28.6 4.7 21.4 4.9 37.4 4.7 61.6-.1 13.3 10.6 24.1 23.8 24.2h.2c13.2 0 23.9-10.6 24-23.8 .2-22.2 .4-44.1-5.8-72.3zm-40.1-90.7C417.3 43.5 337.6 1.3 252.8 0 183-.8 118.5 24.9 70.5 72.9 24.1 119.4-.9 181 .1 246.7l-.1 21.5c-.4 13.3 10 24.3 23.3 24.7 .2 0 .5 0 .7 0 12.9 0 23.6-10.3 24-23.3l.2-23.6c-.8-52.5 19.2-101.9 56.3-139 38.8-38.8 91.3-59.7 147.7-58.9 69.5 1 134.7 35.6 174.6 92.4 7.6 10.9 22.6 13.5 33.4 5.9 10.8-7.6 13.5-22.6 5.8-33.4z"/></svg>