<?xml version="1.0" encoding="UTF-8"?>
<svg xmlns="http://www.w3.org/2000/svg" xmlns:xlink="http://www.w3.org/1999/xlink" width="24px" height="38px" viewBox="0 0 24 38" version="1.1">
<g id="surface1">
<path style=" stroke:none;fill-rule:nonzero;fill:rgb(0%,0%,0%);fill-opacity:1;" d="M 20.398438 0 L 3.601562 0 C 1.613281 0 0 1.59375 0 3.5625 L 0 34.4375 C 0 36.40625 1.613281 38 3.601562 38 L 20.398438 38 C 22.386719 38 24 36.40625 24 34.4375 L 24 3.5625 C 24 1.59375 22.386719 0 20.398438 0 Z M 12 35.625 C 10.671875 35.625 9.601562 34.5625 9.601562 33.25 C 9.601562 31.9375 10.671875 30.875 12 30.875 C 13.328125 30.875 14.398438 31.9375 14.398438 33.25 C 14.398438 34.5625 13.328125 35.625 12 35.625 Z M 12 35.625 "/>
</g>
</svg>
