<svg xmlns="http://www.w3.org/2000/svg" height="16" width="16" viewBox="0 0 512 512"><!--!Font Awesome Free 6.5.1 by @fontawesome - https://fontawesome.com License - https://fontawesome.com/license/free Copyright 2023 Fonticons, Inc.--><path opacity="1" fill="#ffffff" d="M176 216h160c8.8 0 16-7.2 16-16v-16c0-8.8-7.2-16-16-16H176c-8.8 0-16 7.2-16 16v16c0 8.8 7.2 16 16 16zm-16 80c0 8.8 7.2 16 16 16h160c8.8 0 16-7.2 16-16v-16c0-8.8-7.2-16-16-16H176c-8.8 0-16 7.2-16 16v16zm96 121.1c-16.4 0-32.8-5.1-46.9-15.2L0 250.9V464c0 26.5 21.5 48 48 48h416c26.5 0 48-21.5 48-48V250.9L302.9 401.9c-14 10.1-30.4 15.2-46.9 15.2zm237.6-254.2c-8.9-6.9-17.2-13.5-29.6-22.8V96c0-26.5-21.5-48-48-48h-77.6c-3-2.2-5.9-4.3-9-6.6C312.6 29.2 279.2-.4 256 0c-23.2-.4-56.6 29.2-73.4 41.4-3.2 2.3-6 4.4-9 6.6H96c-26.5 0-48 21.5-48 48v44.1c-12.4 9.3-20.8 15.9-29.6 22.8A48 48 0 0 0 0 200.7v10.7l96 69.4V96h320v184.7l96-69.4v-10.7c0-14.7-6.8-28.7-18.4-37.8z"/></svg>